<?xml version="1.0" standalone="no"?>
<!DOCTYPE svg PUBLIC "-//W3C//DTD SVG 20010904//EN"
 "http://www.w3.org/TR/2001/REC-SVG-20010904/DTD/svg10.dtd">
<svg version="1.0" xmlns="http://www.w3.org/2000/svg"
 width="877.000000pt" height="1280.000000pt" viewBox="0 0 877.000000 1280.000000"
 preserveAspectRatio="xMidYMid meet">
<g transform="translate(0.000000,1280.000000) scale(0.100000,-0.100000)"
fill="#000000" stroke="none">
<path d="M4115 12785 c-659 -72 -1254 -378 -1775 -911 -310 -318 -530 -633
-745 -1069 -329 -667 -501 -1379 -522 -2158 l-6 -239 -26 -10 c-240 -98 -472
-258 -624 -432 -231 -265 -363 -559 -406 -906 -8 -57 -11 -746 -11 -2090 0
-2181 -1 -2123 56 -2378 81 -363 250 -703 508 -1026 97 -122 337 -365 463
-468 654 -540 1524 -902 2493 -1037 320 -45 480 -55 865 -55 385 0 545 10 865
55 969 135 1839 497 2493 1037 126 103 366 346 463 468 258 323 427 663 508
1026 57 255 56 197 56 2378 0 1344 -3 2033 -11 2090 -43 347 -175 641 -406
906 -152 174 -384 334 -624 432 l-26 10 -6 239 c-15 565 -111 1096 -290 1608
-151 433 -378 871 -627 1210 -219 299 -515 595 -805 805 -550 398 -1224 584
-1860 515z m585 -1545 c393 -85 717 -293 991 -637 208 -261 392 -636 495
-1012 85 -309 129 -595 142 -920 l7 -161 -1950 0 -1950 0 7 166 c23 563 155
1090 378 1522 320 616 788 982 1361 1062 110 15 411 4 519 -20z m-108 -5115
c486 -85 877 -443 998 -915 123 -479 -60 -997 -457 -1296 l-73 -55 0 -570 0
-569 -675 0 -675 0 0 569 0 570 -73 55 c-489 368 -636 1037 -346 1574 181 337
501 568 881 637 100 18 317 18 420 0z"/>
</g>
</svg>
